<?xml version="1.0" standalone="no"?>
<!DOCTYPE svg PUBLIC "-//W3C//DTD SVG 20010904//EN"
 "http://www.w3.org/TR/2001/REC-SVG-20010904/DTD/svg10.dtd">
<svg version="1.0" xmlns="http://www.w3.org/2000/svg"
 width="896.000000pt" height="896.000000pt" viewBox="0 0 896.000000 896.000000"
 preserveAspectRatio="xMidYMid meet">
<metadata>
Created by potrace 1.14, written by Peter Selinger 2001-2017
</metadata>
<g transform="translate(0.000000,896.000000) scale(0.100000,-0.100000)"
fill="#27272a" stroke="none">
<path d="M3648 8635 c-2 -2 -41 -6 -88 -9 -109 -7 -167 -13 -210 -19 -19 -3
-57 -9 -85 -13 -27 -3 -59 -8 -70 -11 -11 -2 -31 -6 -45 -9 -14 -3 -34 -7 -45
-9 -11 -1 -31 -5 -45 -9 -14 -3 -36 -8 -50 -10 -62 -12 -325 -85 -370 -103 -8
-3 -19 -7 -25 -8 -16 -4 -128 -45 -150 -55 -11 -5 -45 -19 -75 -30 -60 -23
-352 -161 -360 -170 -3 -4 -41 -26 -85 -49 -44 -24 -93 -53 -110 -65 -16 -12
-42 -27 -56 -35 -14 -7 -38 -24 -54 -37 -15 -13 -31 -21 -35 -19 -5 3 -10 1
-12 -3 -1 -5 -30 -28 -63 -52 -33 -24 -61 -47 -63 -52 -2 -4 -8 -8 -14 -8 -11
0 -55 -34 -114 -87 -20 -18 -38 -33 -41 -33 -2 0 -19 -13 -36 -29 -18 -16 -59
-53 -91 -82 -156 -141 -371 -378 -493 -544 -70 -95 -183 -262 -183 -270 0 -4
-11 -21 -25 -39 -14 -18 -25 -35 -25 -39 0 -3 -19 -38 -43 -79 -68 -116 -172
-333 -169 -350 1 -5 -3 -8 -8 -8 -6 0 -10 -7 -10 -16 0 -9 -7 -28 -15 -42 -17
-32 -67 -171 -68 -189 0 -7 -4 -13 -9 -13 -4 0 -8 -8 -8 -17 0 -9 -9 -42 -19
-72 -10 -31 -25 -78 -34 -106 -13 -45 -19 -68 -43 -170 -4 -16 -8 -34 -10 -40
-1 -5 -4 -22 -7 -37 -3 -15 -8 -31 -10 -35 -3 -5 -8 -28 -11 -53 -3 -25 -8
-58 -11 -75 -11 -64 -15 -91 -20 -127 -3 -21 -7 -53 -10 -72 -31 -223 -24
-825 12 -1016 3 -19 6 -38 5 -42 -1 -3 6 -46 14 -95 9 -48 17 -97 19 -108 5
-37 36 -180 52 -240 9 -33 17 -67 18 -75 1 -8 12 -49 25 -90 12 -41 23 -79 24
-85 3 -16 36 -118 46 -140 5 -11 18 -47 30 -80 11 -33 24 -69 29 -80 5 -11 28
-67 52 -125 23 -58 74 -167 111 -242 38 -76 68 -141 68 -144 -1 -4 2 -10 7
-13 6 -3 24 -33 42 -66 41 -75 118 -200 148 -241 13 -17 23 -36 23 -42 0 -7 4
-12 8 -12 4 0 16 -14 26 -31 18 -31 191 -265 210 -285 6 -6 29 -33 51 -59 22
-27 58 -69 80 -94 61 -71 343 -351 404 -401 30 -25 64 -54 77 -65 253 -216
617 -451 939 -605 172 -82 440 -189 550 -220 17 -5 68 -21 115 -35 47 -15 94
-28 105 -30 11 -2 39 -10 62 -18 22 -9 43 -13 46 -10 3 2 14 0 24 -5 10 -5 36
-12 58 -15 22 -4 63 -11 90 -18 28 -6 61 -12 75 -14 14 -2 41 -7 60 -10 80
-16 139 -24 268 -39 226 -27 818 -28 960 -2 9 2 46 7 82 11 106 13 176 24 200
30 8 2 35 7 60 10 25 4 101 20 170 36 69 16 135 32 147 35 12 2 33 8 45 13 13
5 25 9 28 9 46 1 423 133 570 200 36 16 68 30 73 30 4 1 31 14 60 29 28 15 54
27 57 28 3 0 23 10 45 22 157 82 199 105 259 142 38 22 70 41 72 41 3 0 10 5
17 10 7 6 62 43 122 83 61 39 115 76 122 82 25 20 39 31 73 55 19 13 82 62
139 108 96 78 119 97 190 161 59 53 259 253 306 305 28 31 64 72 80 90 17 18
44 50 60 71 17 20 35 42 40 49 6 6 24 29 40 51 17 22 35 45 40 51 10 11 26 32
73 99 92 130 122 176 122 183 0 5 9 17 20 27 11 10 20 24 20 31 0 7 6 19 13
26 11 13 24 33 51 83 6 11 13 22 16 25 26 26 264 516 274 565 2 6 9 26 18 45
8 19 35 96 61 170 38 112 52 157 72 230 1 3 7 25 14 50 7 25 15 53 17 62 2 10
6 26 8 36 3 9 12 50 21 91 9 41 18 77 19 80 2 3 7 28 11 56 3 27 10 70 15 95
20 98 26 147 45 360 8 83 10 247 5 283 -2 9 -7 17 -12 17 -4 0 -8 5 -8 11 0
15 -26 35 -69 54 -28 13 -119 15 -582 15 -518 0 -549 -1 -558 -18 -6 -10 -6
-24 -1 -32 5 -8 7 -17 4 -21 -2 -4 -6 -51 -9 -106 -6 -121 -19 -250 -31 -307
-2 -12 -7 -38 -9 -58 -4 -31 -16 -91 -40 -198 -24 -111 -84 -304 -134 -430
-48 -120 -102 -243 -112 -250 -3 -3 -10 -16 -15 -30 -13 -35 -105 -202 -121
-218 -7 -7 -13 -18 -13 -23 0 -6 -6 -16 -12 -24 -7 -7 -25 -32 -40 -56 -51
-82 -45 -74 -154 -214 -42 -55 -91 -116 -108 -135 -63 -71 -283 -287 -341
-335 -33 -28 -62 -53 -65 -56 -24 -27 -380 -274 -380 -264 0 3 -24 -11 -53
-29 -29 -19 -116 -64 -193 -101 -184 -88 -187 -89 -274 -120 -41 -14 -90 -33
-108 -41 -18 -8 -41 -14 -52 -14 -10 0 -21 -4 -25 -9 -3 -6 -13 -10 -23 -9 -9
0 -57 -12 -105 -26 -49 -14 -103 -28 -120 -31 -18 -3 -41 -8 -52 -10 -11 -2
-36 -7 -55 -10 -32 -6 -49 -9 -105 -20 -54 -10 -222 -27 -320 -31 -60 -3 -127
-6 -147 -8 -21 -1 -38 1 -38 5 0 4 -17 3 -37 -1 -20 -5 -41 -6 -46 -3 -5 3
-50 7 -99 9 -91 3 -293 25 -318 34 -3 2 -8 2 -12 1 -8 -1 -96 16 -178 34 -14
4 -36 8 -50 11 -92 19 -347 100 -455 145 -16 7 -32 13 -35 14 -45 12 -336 159
-414 209 -31 20 -59 36 -62 36 -8 0 -69 44 -72 53 -2 4 -8 7 -14 7 -6 0 -31
15 -55 32 -63 47 -196 150 -209 163 -7 5 -31 26 -55 45 -51 42 -269 258 -319
317 -65 76 -105 126 -143 177 -21 28 -45 59 -53 69 -7 9 -14 22 -14 27 0 6 -4
10 -8 10 -4 0 -21 23 -37 50 -16 28 -33 50 -38 50 -4 0 -5 5 -2 10 3 6 2 10
-3 10 -4 0 -16 15 -25 33 -9 17 -29 52 -44 77 -14 25 -43 78 -64 118 -21 41
-43 80 -50 88 -6 8 -9 14 -6 14 4 0 -5 21 -18 48 -20 40 -43 92 -50 112 -1 3
-7 19 -14 35 -32 76 -90 246 -97 284 -3 13 -9 32 -15 43 -5 10 -7 18 -4 18 3
0 1 8 -4 18 -5 9 -11 31 -14 47 -3 17 -12 59 -21 95 -8 36 -18 83 -22 104 -3
21 -8 48 -10 60 -43 209 -52 659 -18 886 19 134 72 367 95 420 6 14 13 36 15
49 3 13 12 37 20 52 8 16 14 30 13 31 0 2 4 16 10 31 6 16 11 30 11 33 0 7
104 228 110 234 3 3 18 30 34 60 49 94 191 300 280 405 95 113 243 259 360
354 93 76 299 214 382 256 32 17 61 33 62 38 2 4 8 7 13 7 4 0 40 15 79 34 38
19 70 31 70 28 0 -4 4 -2 8 4 6 9 182 79 223 89 9 2 46 13 84 24 37 12 77 23
89 25 11 3 32 8 46 11 55 13 127 27 160 31 19 3 46 7 60 9 271 38 505 35 805
-10 25 -4 96 -16 110 -20 6 -1 28 -5 50 -10 22 -4 45 -10 50 -14 6 -3 19 -7
30 -8 11 -2 42 -10 68 -19 26 -9 53 -17 60 -18 7 -2 25 -8 41 -15 16 -6 36
-13 45 -15 9 -1 33 -10 55 -19 21 -9 40 -17 43 -17 10 0 121 -53 288 -138 98
-50 366 -239 451 -319 23 -21 56 -52 75 -69 54 -50 181 -185 224 -239 21 -27
44 -55 49 -60 6 -6 16 -18 21 -26 6 -9 42 -63 81 -120 39 -57 74 -111 77 -119
4 -8 16 -28 27 -45 21 -32 49 -92 49 -102 -1 -3 3 -9 8 -12 15 -10 128 -269
137 -313 2 -7 6 -21 9 -30 8 -21 14 -41 15 -48 0 -3 6 -18 12 -35 7 -16 14
-43 17 -60 3 -16 9 -38 14 -47 5 -10 7 -18 5 -18 -3 0 -1 -12 5 -27 5 -14 12
-47 15 -72 3 -25 8 -49 11 -54 3 -5 7 -27 9 -50 3 -23 7 -53 10 -67 3 -14 7
-56 10 -95 3 -38 7 -81 8 -95 5 -61 28 -102 74 -131 l46 -29 563 0 c529 0 563
1 564 18 1 9 1 20 0 24 0 4 -3 67 -6 140 -3 73 -8 156 -11 183 -12 109 -22
194 -28 225 -3 14 -7 41 -10 60 -3 19 -8 44 -10 55 -2 11 -11 56 -20 100 -20
96 -65 272 -76 300 -10 22 -33 95 -36 110 -3 15 -94 253 -116 305 -38 85 -161
335 -173 350 -7 8 -23 35 -36 60 -13 25 -34 59 -46 76 -13 17 -23 34 -23 37 0
10 -121 186 -183 266 -15 20 -37 49 -50 65 -12 17 -32 40 -45 53 -13 13 -20
23 -17 23 4 0 0 6 -7 14 -7 7 -44 48 -83 92 -211 236 -457 451 -725 635 -74
50 -68 46 -192 118 -51 30 -105 63 -120 73 -16 11 -28 16 -28 12 0 -4 -8 -1
-17 7 -28 22 -312 158 -344 164 -10 2 -31 11 -48 19 -17 9 -33 16 -36 16 -3 1
-10 3 -17 5 -68 25 -267 90 -327 106 -104 28 -113 30 -136 34 -31 6 -65 14
-83 19 -9 3 -28 7 -42 10 -14 2 -52 9 -85 15 -126 22 -171 29 -250 37 -33 3
-78 8 -100 10 -46 6 -542 14 -547 9z"/>
</g>
</svg>
